<?xml version="1.0" encoding="UTF-8"?>
<svg id="Capa_1" data-name="Capa 1" xmlns="http://www.w3.org/2000/svg" viewBox="0 0 554.55 567.83">
  <defs>
    <style>
      .cls-1 {
        fill: #c5915f;
      }

      .cls-1, .cls-2 {
        stroke-width: 0px;
      }

      .cls-3 {
        stroke: #a17447;
        stroke-width: 11.34px;
      }

      .cls-3, .cls-4 {
        fill: none;
        stroke-miterlimit: 10;
      }

      .cls-2 {
        fill: #987942;
      }

      .cls-4 {
        stroke: #c5915f;
        stroke-width: 5.67px;
      }
    </style>
  </defs>
  <g>
    <path class="cls-1" d="M210.59,270.87c3.31-1.82,7.19-3.05,11.02-3.01,0,0,0,0,.01,0-2.1-.81-4.23-1.53-6.39-2.13-1.12.46-2.35.35-3.66.3-2.48-.1-4.9.48-7.39.38-2.43-.11-5.5-2.75-3.65-5.28,4-5.49,13.64-.95,16.46,3.78,1.39.39,2.76.82,4.11,1.29-1.08-1.69-2.06-3.57-2.93-5.28-.74-1.45-1.35-3.88.53-4.69,2.41-1.03,4.2,1.44,4.96,3.31.98,2.41,1.26,5.47,1.17,8.09,3.52,1.45,6.92,3.17,10.26,5.1-1.45-2.1-2.81-4.36-4.05-6.38-1.26-2.06-3.15-4.86-2.29-7.38,1-2.92,5.8.28,6.73,1.46,3.54,4.47,4.21,9.94,4.68,15.43.75.49,1.51.99,2.26,1.5,1.4.95,2.96,1.96,4.58,3.03-.36-.92-.68-1.88-1.18-2.72-1.02-1.77-1.95-3.57-2.68-5.48-.99-2.6-1.13-6.25,2.42-6.49,3.25-.22,4.18,5.18,4.57,7.39.47,2.65,1.08,6.65-.19,9.3,4.35,3.02,8.72,6.53,11.28,10.74-2.48-11.95-4.68-23.9-8.73-35.55-1.26-3.62-2.68-7.17-4.25-10.65-.12.06-.27.05-.4-.08-4.41-4.53-9.18-8.39-14.2-11.79-.96-.1-1.93.08-2.78.46-2.51,1.1-13.74,11.58-15.75,6.22-1.59-4.25,8.21-7.61,10.74-8.02,1.9-.29,4.01-.29,6,.14-3.33-2.15-6.77-4.1-10.3-5.9-1.15.04-2.31.27-3.36.65-2.18.8-15.82,7.59-15.73,2.33.03-3.89,10.32-4.36,12.63-4.38,1.12.02,2.55.03,4,.19-3.72-1.8-7.52-3.45-11.4-4.99-.53.16-1.05.33-1.55.46-3.13.69-11.69,5.34-14.2,3.39-2.8-2.18,4.48-4.45,5.87-4.75,2.07-.48,4.24-.65,6.38-.46-1.81-.69-3.64-1.36-5.47-2.02-1.1,0-2.25.23-3.31.28-3.2.06-21.71-3.78-14.27-7.64,6.4-3.36,12.4,2.5,17.38,6.02,1.45.4,2.91.81,4.39,1.25-2.45-1.92-9.49-8.19-3.71-8.02,3.64.1,6.97,6.08,8.82,9.62,3.66,1.21,7.32,2.56,10.9,4.09-.12-.17-.24-.33-.37-.5-1.52-2-11.89-10.56-8.14-12.93,3.31-2.07,7.28,4.98,8.28,7.04,1.16,2.31,2.02,4.83,2.49,7.39,3.54,1.61,6.98,3.41,10.23,5.42-2.31-2.66-5.43-4.33-7.15-7.6-1.04-1.99-2.79-7.8,1.34-6.44,4.23,1.36,7.43,8.54,8.76,12.29.5,1.48.8,2.94,1.04,4.41,4.43,3.19,8.37,6.87,11.56,11.14-4.88-10.16-11.07-19.61-18.52-28.17-9.44-10.84-21.44-21.2-34.82-28.93-2.82-.32-5.6-.35-8.34-.18-.44.8-.97,1.56-1.46,2.33-1.45,2.25-8.21,12.76-11.56,10.79-2.62-1.6,4.87-9.96,10.1-12.87-3.95.43-7.85,1.18-11.76,1.97-.35.78-.58,1.61-.94,2.38-.92,1.83-6.08,9.44-8.61,7.75-3.2-2.28,3.72-7.89,7.34-9.69-2.67.54-5.35,1.06-8.06,1.48-1.24.68-2.54,1.29-3.68,2.15-2.34,1.81-4.12,3.41-7.37,3.43-4.58-.11-4.7-3.36-1.15-5.61,2.87-1.76,5.7-1.84,8.82-1.11.66.15,1.32.32,1.98.44,2.75-.62,5.48-1.33,8.22-2.03-.8-.04-1.6-.07-2.39-.15-1.48-.06-4.63-.06-5.65-1.37-1.16-1.61.32-2.5,1.91-2.92,3.72-.92,6.47,1.78,9.39,3.62,1.71-.42,3.42-.83,5.13-1.19.96-.2,2-.42,3.08-.62-.58-.11-1.17-.2-1.79-.27-1.86-.18-12.12-3.02-6.65-5.52,3.87-1.87,10.25,1.93,13.28,5.05,2.08-.22,4.19-.29,6.18-.07-9.07-4.78-18.69-8.3-28.52-9.93-.04.1-.1.19-.21.26-2.43,1.51-11.28,12.33-14.16,8.25-2.55-3.61,5.79-7.52,10.82-9.02-2.41-.28-4.82-.46-7.24-.5-2.45,2.03-4.89,4.65-7.69,6.16-1.4.75-3.97.87-3.93-1.36.03-1.54,1.85-2.59,3.43-3.29.56-.29,1.17-.53,1.8-.73.61-.24,1.25-.48,1.93-.7-1.32.06-2.65.17-3.97.31-.59.26-1.22.42-1.82.68-.8.34-1.55.81-2.33,1.2-.87.44-1.81.76-2.73,1.07-1.31.44-4.1,1.45-5.18.1-1.26-1.57,2.19-3.92,3.25-4.38,2.44-1.07,5.38-.29,7.91.41.27-.03.54-.02.8.02,1.35-.18,2.7-.31,4.05-.4-3.18-.99-7.47-2.89-6.42-5.11.91-1.91,3.76-1.89,5.41-1.17,2.37,1.03,3.84,3.77,4.79,6.11,1.83-.03,3.66.03,5.48.14-3.46-2.16-7.51-5.77-5.41-8.38,3.7-4.6,9.68,5.35,10.42,8.87,4.93.65,9.79,1.79,14.55,3.34-1.23-1.06-2.36-2.25-3.39-3.56-.01,0-.02,0-.04,0-3.01-1.49-6.29.38-9.31-.83-1.77-.71-3.25-2.57-1.63-4.21,2.13-2.17,5.86-.6,8.55,1.48-.87-1.47-1.65-3.01-2.35-4.59-2.17-.55-4.41-.6-6.58-1.23-1.76-.51-3.19-1.85-2.17-3.7,1.69-3.04,4.62-1.99,6.87-.04-.29-.9-.56-1.8-.8-2.7-.05-.06-.1-.11-.14-.19-.62-1.36-1.96-2.09-2.68-3.37-.44-.78-.63-1.68-.75-2.56-.19-1.4-.12-3.39,1.31-4.11,1.68-.84,3.34,1.72,3.76,2.94.78,2.25.45,4.59-.1,6.84.4,1.02.78,2.06,1.14,3.11.04-.65.09-1.28.12-1.81.09-1.8.93-4.6,3.33-4.01,2.03.49,1.78,3.45,1.39,4.92-.52,1.99-1.51,4.5-2.91,6.1.04.11.08.21.13.31.45,1.05.94,2.06,1.47,3.03,0-1.21.24-2.42.64-3.53.52-1.42,1.49-3.54,3.22-3.69,1.92-.17,2.64,2.72,2.54,4.1-.17,2.63-2.39,5-4.01,6.89,1.32,1.81,2.82,3.5,4.49,5.11.01.01,0,.03.02.04,12.9,4.55,25.02,12.04,35.73,20.83-2.08-3.22-3.87-6.82-5.49-10.4-1.01-.59-2.07-1.16-3.21-1.56-2.67-.94-14.16-1.82-11.59-7.07,2.79-5.72,9.8,1.25,13.77,6.32-1-2.29-1.94-4.53-2.85-6.61-.75-1.72-1.55-3.4-2.37-5.08-.78-.36-1.67-.55-2.49-.66-2.3-.45-4.58-.11-6.78-1.04-1.86-.76-6.45-3.55-5.09-6.15,1.5-2.78,6.63-.88,8.43.3,1.35.89,2.63,2.03,3.79,3.28-1.84-3.67-3.66-7.33-5.13-11.15-.62-.53-1.25-1.02-1.82-1.58-2.55-2.37-11.07-15.89-2.5-14.24,6.84,1.35,5.29,9.06,5.34,14.52,1.04,2.37,2.17,4.69,3.34,6.99.02-.52.05-1.04.02-1.55-.14-1.93-.11-12.49,4.09-10.39,3.46,1.64-1.24,11.49-2.83,14.44,1.68,3.25,3.38,6.5,4.91,9.85.42.91.81,1.82,1.21,2.72.03-.68.08-1.35.08-2.04.13-3.9-2.15-15.01,3.16-16.5,6.66-1.88-1.35,17.93-2.43,20.38,1.62,3.73,3.22,7.42,5.23,11.04.04-.74.11-1.49.21-2.26.25-2.18.06-4.05.1-6.21,0-2.68,1.4-10.02,4.74-10.72,6.26-1.29-2.46,16.95-4.4,20.37,1.68,2.95,3.43,5.84,5.04,8.82,3.63,3.21,7.08,6.56,10.31,9.96,8.64,9.1,15.56,19.54,20.99,30.76-.08-2.73-.05-5.47.06-8.21-1.02-2.07-1.67-3.61-3.41-5.23-1.47-1.37-2.97-2.7-4.36-4.16-1.46-1.54-3.87-4.4-2.46-6.67,1.77-2.86,5.04-.01,6.58,1.57,2.22,2.28,3.64,4.96,4.08,7.93.22-2.37.5-4.73.83-7.08-2.79-4.03-13.35-9.17-7.25-13.81,4.36-3.32,7.23,1.88,8.45,6.63.44-2.31.93-4.6,1.46-6.88-.47-2.57-.59-5.31-.95-7.88-.33-2.36-.49-4.93.24-7.24.86-2.73,2.87-6.4,6.25-4.89,3.37,1.5,3.53,5.78,2.58,8.75-1.34,4.18-4.43,7.71-6.63,11.46-.44,2.69-.83,5.38-1.17,8.07.96-1.61,2.21-3.09,3.32-4.3,1.54-1.67,4.96-5.01,7.5-3.31,2.73,1.83,1.3,4.6-.73,6.24-1.59,1.28-3.57,2.16-5.41,3.01-2.04.94-3.6,1.77-5.23,3.12-.36,3.29-.67,6.58-.95,9.89,2.47-4.1,7.41-8.6,11.5-7.34,3.33,1.03,2,4.69.37,6.49-1.22,1.35-2.73,2.21-4.48,2.65-1.12.28-2.32.25-3.46.3-1.59.06-2.92.58-4.23,1.31-.35,4.23-.67,8.48-1.03,12.76,1.15,2.53,2.23,5.09,3.23,7.69,2.98,7.69,5.56,15.89,7.58,24.23.39-2.62,1.13-5.29,2.06-7.92-.01-.07-.03-.13-.02-.2.27-5.24-2.11-9.1-3.75-13.91-1.12-3.29-1.5-6.85,1.49-9.19,2.98-2.32,5.26,2,5.93,4.24.88,2.96.88,6.19.48,9.37.69-1.45,1.37-2.85,1.99-4.16.55-1.15,1.12-2.3,1.69-3.44.01-.04.04-.09.06-.13.14-.27.28-.55.42-.82-.43-1.09-.65-2.25-1.13-3.34-.72-1.62-1.5-3.21-2.15-4.87-.95-2.42-2.27-6.02-.39-8.31s4.95-.42,5.91,1.7c1.18,2.61,1.18,5.23.76,7.85-.03.76-.15,1.49-.4,2.06,1.61-2.97,3.28-5.92,4.97-8.85,0,0,0,0,0,0-.21-1.57-1.53-2.64-1.9-4.18-.28-1.14-.37-2.32-.4-3.49-.05-1.7-.13-4.57,1.69-5.44,2.19-1.05,3.74,2.81,3.93,4.26.14,1.08.08,2.2-.11,3.32.44-.76.88-1.52,1.32-2.27.57-4,1.95-18.19,7.8-13.66,5.13,3.98-3.21,11-6.49,13.48-.17.35-.34.69-.51,1.03,0,.02-.01.05-.02.07-.02.05-.05.09-.08.13-.64,1.29-1.3,2.58-1.97,3.86,1.59-1.09,3.65-1.64,5.47-1.96,1.7-.3,5.37-.32,5.69,2.05.26,1.9-3.41,2.7-4.6,3.02-1.17.32-2.36.55-3.56.73-1.59.24-3.16-.21-4.76.04-.11.02-.2.01-.29,0-1.53,2.85-3.09,5.7-4.62,8.55,1.4-1.21,2.91-2.3,4.43-3.32,2.05-1.37,6.34-4.09,8.79-2.06,2.54,2.1,1.04,5.1-1.47,6.34-1.97.98-4.1,1.49-6.24,1.97-3.29.73-5.57,1.42-8.48,3.39-.14.09-.28.14-.42.16-1.46,2.91-2.78,5.84-3.97,8.78,3.53-2.72,8.47-3.84,12.74-4.45,1.84-.26,8.33.25,6.42,3.86-1.63,3.08-6.64,3.9-9.66,4.63-3.64.87-7.84,1.57-11.63,1.65-1.57,4.58-2.86,9.26-3.93,14.11,1.64,7.64,2.76,15.36,3.23,22.87.03.48-.73.71-.86.2-.61-2.45-1.17-4.9-1.7-7.35-.06-.05-.12-.1-.16-.18-2.7-5.22-6.79-9.19-11.31-12.73-1.15.5-2.4.49-3.64.88-.91.29-1.67.77-2.47,1.27-2.1,1.29-4.19,2.59-6.45,3.6-2.62,1.17-7.36.99-6.19-3.17.6-2.15,2.76-3.45,5.09-4.29.76-.31,1.58-.55,2.42-.72.85-.21,1.66-.37,2.35-.5,1.03-.19,2.7-.41,4.39-.39-1.69-1.19-3.39-2.36-5.07-3.54-.91-.64-1.83-1.26-2.75-1.87-2.7.72-5.21,1.24-7.63,2.84-2.14,1.42-4.26,2.81-6.61,3.86-2.16.97-8.24,1.61-8.15-2.41.08-3.54,4.7-5.04,7.5-5.93,2.63-.83,6.42-1.93,9.66-1.62-2.66-1.55-5.39-2.97-8.19-4.22-1.39.94-3.26.97-4.68,2.02-1.66,1.22-3.27,2.51-4.97,3.68-2,1.38-5.96,4.26-8.33,2.09-2.67-2.44,1.62-5.27,3.42-6.26ZM139.48,173.76s.02.02.03.03c.03,0,.05,0,.08-.01-.04,0-.07-.01-.11-.02ZM164.26,150.81s.02.07.02.11c.03.06.05.12.07.18-.03-.1-.06-.19-.09-.29ZM260,209.34s0-.05,0-.08c-.07.05-.14.09-.22.14.07-.02.14-.04.21-.06ZM268.42,235.95s0-.03,0-.04c-.02.01-.03.03-.05.05.02,0,.03,0,.05,0Z"/>
    <path class="cls-1" d="M355.62,278.09c-2.42-1.64-5.33-2.88-8.29-3.12,0,0,0,0-.01,0,1.68-.48,3.37-.88,5.09-1.18.83.43,1.79.44,2.8.5,1.92.11,3.75.73,5.68.82,1.89.09,4.44-1.73,3.2-3.81-2.7-4.52-10.46-1.72-12.98,1.73-1.1.2-2.19.44-3.27.7.95-1.22,1.85-2.61,2.64-3.86.68-1.07,1.33-2.9-.07-3.66-1.78-.97-3.35.81-4.07,2.19-.93,1.79-1.37,4.13-1.48,6.16-2.82.87-5.57,1.94-8.29,3.19,1.27-1.52,2.48-3.16,3.59-4.64,1.13-1.5,2.79-3.53,2.3-5.53-.56-2.33-4.5-.2-5.3.64-3.06,3.2-3.97,7.37-4.73,11.58-.62.33-1.23.66-1.85,1-1.15.63-2.43,1.3-3.76,2.01.35-.68.66-1.4,1.1-2.02.92-1.29,1.76-2.62,2.46-4.04.95-1.94,1.32-4.74-1.4-5.19-2.49-.4-3.6,3.7-4.06,5.37-.55,2.01-1.31,5.06-.53,7.19-3.58,2.02-7.2,4.42-9.49,7.48,2.78-9.04,5.34-18.11,9.31-26.82,1.23-2.71,2.59-5.35,4.05-7.92.09.05.21.06.31-.03,3.74-3.18,7.69-5.82,11.82-8.08.75,0,1.49.2,2.11.55,1.86,1.03,9.77,9.94,11.71,5.94,1.53-3.17-5.79-6.47-7.71-6.97-1.44-.36-3.08-.51-4.64-.32,2.73-1.42,5.52-2.68,8.38-3.81.89.11,1.76.38,2.55.75,1.62.77,11.67,7.01,11.98,2.94.26-3-7.66-4.11-9.44-4.3-.87-.07-1.97-.16-3.1-.14,3-1.12,6.06-2.12,9.16-3.03.4.16.79.33,1.16.47,2.37.76,8.64,4.97,10.72,3.64,2.32-1.48-3.14-3.76-4.19-4.09-1.57-.52-3.22-.8-4.89-.82,1.45-.4,2.91-.79,4.37-1.16.85.08,1.72.34,2.54.45,2.46.28,17.03-1.35,11.57-4.86-4.7-3.05-9.75,1.03-13.86,3.39-1.15.2-2.31.42-3.48.65,2.03-1.3,7.92-5.64,3.44-5.93-2.82-.19-5.82,4.19-7.5,6.79-2.91.67-5.84,1.44-8.71,2.37.11-.12.21-.23.32-.36,1.31-1.43,9.94-7.29,7.22-9.4-2.41-1.84-5.98,3.32-6.9,4.84-1.06,1.7-1.91,3.58-2.45,5.52-2.85.99-5.64,2.13-8.29,3.45,1.98-1.88,4.5-2.95,6.07-5.35.95-1.46,2.72-5.82-.57-5.07-3.37.74-6.36,6.06-7.65,8.86-.49,1.11-.83,2.21-1.12,3.33-3.65,2.14-6.96,4.7-9.73,7.77,4.5-7.49,9.97-14.34,16.33-20.41,8.07-7.69,18.09-14.82,28.97-19.82,2.2-.04,4.35.13,6.45.46.28.65.64,1.28.96,1.9.96,1.84,5.42,10.44,8.15,9.16,2.14-1.05-3.04-8.04-6.87-10.66,3.02.62,5.98,1.48,8.94,2.37.22.63.34,1.28.55,1.91.58,1.48,4.01,7.73,6.09,6.61,2.63-1.53-2.3-6.36-4.97-8.01,2.02.61,4.06,1.21,6.12,1.72.91.61,1.86,1.18,2.68,1.92,1.67,1.57,2.93,2.93,5.44,3.18,3.54.24,3.87-2.25,1.29-4.25-2.09-1.57-4.26-1.83-6.73-1.49-.52.07-1.04.15-1.56.2-2.08-.68-4.14-1.42-6.2-2.16.62.03,1.24.06,1.86.06,1.14.06,3.58.29,4.46-.65,1.01-1.16-.07-1.95-1.26-2.4-2.8-.98-5.12.9-7.51,2.12-1.29-.45-2.58-.89-3.88-1.29-.73-.23-1.51-.47-2.33-.7.46-.04.92-.07,1.4-.08,1.45,0,9.58-1.46,5.54-3.78-2.85-1.72-8.05.75-10.62,2.94-1.59-.32-3.21-.53-4.77-.5,7.35-3.04,15.03-5.06,22.73-5.6.02.08.06.16.14.22,1.77,1.34,7.82,10.34,10.34,7.39,2.23-2.61-3.93-6.23-7.7-7.75,1.88-.04,3.76,0,5.63.13,1.75,1.75,3.44,3.94,5.49,5.31,1.03.68,3.01.96,3.13-.77.09-1.19-1.24-2.13-2.41-2.79-.41-.26-.87-.5-1.34-.69-.45-.23-.93-.46-1.44-.68,1.02.15,2.03.32,3.04.53.44.24.91.41,1.36.65.6.32,1.14.74,1.71,1.1.64.4,1.34.72,2.03,1.02.98.43,3.06,1.42,3.99.45,1.09-1.12-1.41-3.18-2.19-3.61-1.81-1-4.13-.61-6.14-.25-.2-.04-.41-.06-.62-.04-1.03-.23-2.06-.43-3.09-.6,2.53-.53,5.98-1.7,5.33-3.48-.56-1.54-2.77-1.73-4.09-1.29-1.9.63-3.24,2.63-4.14,4.37-1.41-.15-2.83-.24-4.24-.29,2.83-1.41,6.21-3.91,4.78-6.08-2.53-3.82-7.86,3.44-8.69,6.09-3.85.15-7.69.67-11.48,1.53,1.03-.73,1.98-1.57,2.87-2.5.01,0,.02,0,.03,0,2.43-.93,4.83.74,7.25.03,1.42-.42,2.69-1.75,1.56-3.13-1.49-1.83-4.48-.89-6.71.52.78-1.07,1.49-2.21,2.14-3.38,1.72-.26,3.45-.15,5.17-.48,1.39-.27,2.6-1.2,1.94-2.7-1.08-2.47-3.42-1.87-5.3-.53.29-.68.56-1.35.81-2.03.04-.04.08-.08.12-.14.58-1,1.66-1.48,2.31-2.41.4-.57.61-1.25.77-1.92.25-1.07.34-2.61-.72-3.27-1.24-.77-2.7,1.09-3.12,2-.77,1.68-.68,3.51-.42,5.29-.38.76-.75,1.54-1.1,2.32.02-.51.02-.99.04-1.41.06-1.39-.38-3.62-2.28-3.34-1.6.24-1.62,2.54-1.43,3.7.26,1.58.84,3.58,1.81,4.92-.04.08-.08.16-.12.23-.42.78-.87,1.52-1.36,2.24.08-.93,0-1.88-.24-2.77-.3-1.13-.89-2.84-2.22-3.08-1.47-.27-2.23,1.91-2.26,2.99-.06,2.04,1.48,4.03,2.6,5.61-1.15,1.3-2.43,2.5-3.84,3.62-.01,0,0,.02-.02.03-10.29,2.58-20.19,7.49-29.09,13.5,1.84-2.34,3.48-4.99,4.99-7.63.82-.39,1.68-.74,2.59-.97,2.13-.53,11.06-.38,9.46-4.62-1.74-4.61-7.66.26-11.09,3.88.94-1.69,1.83-3.35,2.68-4.89.7-1.27,1.44-2.52,2.2-3.75.63-.22,1.33-.31,1.97-.33,1.81-.18,3.54.24,5.31-.32,1.49-.45,5.24-2.27,4.37-4.38-.96-2.25-5.06-1.16-6.53-.38-1.1.59-2.18,1.37-3.16,2.26,1.69-2.7,3.36-5.4,4.77-8.24.51-.36,1.04-.7,1.52-1.09,2.14-1.64,9.69-11.47,2.96-10.82-5.38.55-4.74,6.61-5.17,10.82-.97,1.75-2.01,3.46-3.08,5.16.02-.4.04-.81.1-1.2.25-1.48.99-9.63-2.41-8.32-2.79,1.02.13,8.96,1.14,11.35-1.53,2.39-3.08,4.78-4.5,7.25-.39.67-.76,1.34-1.13,2.02.02-.53.04-1.05.08-1.58.18-3.02,2.75-11.43-1.25-12.96-5.01-1.93-.26,13.94.4,15.91-1.52,2.76-3.02,5.49-4.84,8.14.02-.57.02-1.16,0-1.76-.04-1.7.25-3.13.37-4.8.2-2.07-.36-7.83-2.89-8.62-4.74-1.45.67,13.27,1.92,16.04-1.51,2.15-3.07,4.26-4.53,6.45-3.03,2.22-5.94,4.55-8.68,6.94-7.33,6.4-13.43,13.96-18.43,22.23.26-2.1.44-4.22.55-6.34.93-1.52,1.55-2.66,3.01-3.79,1.23-.95,2.49-1.87,3.66-2.9,1.24-1.08,3.31-3.12,2.38-4.97-1.16-2.33-3.89-.37-5.19.74-1.88,1.6-3.17,3.56-3.72,5.82,0-1.84-.04-3.69-.13-5.53,2.45-2.91,10.97-6.12,6.6-10.14-3.13-2.88-5.72.93-7,4.51-.17-1.81-.39-3.62-.63-5.42.55-1.95.84-4.06,1.3-6.02.43-1.8.73-3.77.34-5.61-.47-2.17-1.75-5.15-4.47-4.23-2.71.92-3.14,4.21-2.62,6.57.73,3.32,2.86,6.27,4.29,9.33.15,2.11.25,4.21.32,6.31-.63-1.31-1.49-2.55-2.26-3.56-1.06-1.4-3.47-4.23-5.55-3.1-2.24,1.22-1.34,3.46.11,4.87,1.14,1.11,2.6,1.92,3.96,2.71,1.51.88,2.65,1.63,3.82,2.78.04,2.56.04,5.13.02,7.7-1.61-3.35-5.1-7.18-8.35-6.5-2.65.55-1.89,3.48-.76,4.99.85,1.13,1.95,1.91,3.26,2.37.84.3,1.77.36,2.65.48,1.22.16,2.21.66,3.17,1.31-.04,3.29-.09,6.6-.12,9.92-1.07,1.87-2.09,3.77-3.05,5.7-2.85,5.73-5.44,11.87-7.6,18.16-.11-2.05-.49-4.16-1.02-6.26.01-.05.03-.1.03-.15.17-4.07,2.29-6.88,3.9-10.47,1.11-2.46,1.65-5.18-.49-7.2-2.13-2.01-4.21,1.16-4.89,2.85-.9,2.22-1.13,4.71-1.05,7.2-.43-1.17-.85-2.3-1.24-3.36-.34-.93-.7-1.85-1.06-2.77,0-.04-.03-.07-.04-.1-.09-.22-.18-.44-.26-.66.41-.81.66-1.69,1.12-2.5.68-1.2,1.39-2.37,2.01-3.6.91-1.8,2.18-4.48.9-6.39s-3.79-.68-4.69.89c-1.1,1.93-1.29,3.95-1.15,6.01-.03.59,0,1.16.16,1.62-1.03-2.41-2.1-4.8-3.2-7.19,0,0,0,0,0,0,.28-1.2,1.37-1.93,1.77-3.09.3-.86.45-1.76.56-2.67.16-1.31.43-3.52-.91-4.32-1.62-.97-3.09,1.9-3.34,3.01-.19.82-.22,1.69-.16,2.57-.29-.62-.57-1.23-.86-1.85-.15-3.13-.2-14.19-5.04-11.11-4.24,2.7,1.68,8.73,4.04,10.88.1.28.21.56.32.83,0,.02,0,.04.01.06.01.04.03.07.05.1.4,1.04.82,2.08,1.24,3.12-1.15-.96-2.7-1.53-4.08-1.91-1.29-.35-4.12-.63-4.54,1.17-.34,1.44,2.44,2.33,3.34,2.67.88.33,1.78.6,2.69.82,1.21.3,2.46.06,3.67.38.08.02.16.02.23.01.98,2.31,1.97,4.62,2.95,6.94-.99-1.03-2.08-1.98-3.18-2.88-1.48-1.2-4.6-3.61-6.63-2.23-2.11,1.44-1.17,3.86.68,5,1.45.9,3.06,1.45,4.67,1.97,2.49.8,4.2,1.5,6.3,3.23.1.08.2.13.31.16.92,2.35,1.73,4.71,2.43,7.07-2.53-2.36-6.26-3.57-9.51-4.36-1.4-.34-6.45-.41-5.24,2.51,1.03,2.49,4.84,3.49,7.12,4.27,2.75.94,5.94,1.78,8.86,2.11.89,3.65,1.54,7.36,2.02,11.18-1.82,5.78-3.24,11.66-4.15,17.43-.06.37.51.6.65.22.65-1.84,1.25-3.7,1.85-5.55.05-.03.1-.07.13-.13,2.46-3.84,5.91-6.61,9.65-9.01.85.47,1.82.55,2.75.94.68.29,1.23.72,1.82,1.16,1.53,1.15,3.05,2.3,4.72,3.25,1.94,1.09,5.61,1.3,5.01-2-.31-1.7-1.88-2.87-3.62-3.68-.57-.3-1.18-.54-1.82-.73-.64-.22-1.26-.4-1.78-.55-.78-.22-2.06-.51-3.36-.62,1.39-.8,2.79-1.58,4.17-2.36.75-.43,1.5-.84,2.26-1.25,2.03.75,3.93,1.34,5.69,2.74,1.55,1.25,3.09,2.48,4.83,3.46,1.6.9,6.24,1.84,6.46-1.28.19-2.74-3.26-4.23-5.36-5.12-1.97-.83-4.82-1.96-7.34-1.94,2.16-1,4.37-1.9,6.63-2.67,1.01.82,2.45.99,3.47,1.9,1.19,1.06,2.34,2.18,3.57,3.2,1.45,1.21,4.29,3.72,6.28,2.22,2.23-1.69-.87-4.18-2.19-5.08ZM417.54,208.25s-.02.02-.02.02c-.02,0-.04-.01-.06-.02.03,0,.06,0,.09,0ZM400.07,188.74s-.02.05-.03.08c-.02.04-.05.09-.07.14.03-.07.06-.14.09-.22ZM321.92,227.02s0-.04,0-.06c.05.04.1.08.16.12-.05-.02-.11-.04-.16-.06ZM313.5,246.96s0-.02,0-.03c.01.01.02.03.03.04-.01,0-.03,0-.04-.01Z"/>
    <path class="cls-1" d="M317.38,186.34c-2.15.13-4.41.71-6.24,1.9,0,0,0,0,0,0,.77-1.03,1.58-2.03,2.44-2.98.68-.12,1.24-.55,1.86-.97,1.17-.8,2.52-1.26,3.69-2.07,1.14-.79,1.82-3.01.16-3.66-3.61-1.43-6.88,3.69-6.8,6.84-.55.61-1.08,1.24-1.59,1.88,0-1.14-.09-2.35-.19-3.44-.08-.93-.53-2.29-1.68-2.11-1.48.23-1.59,1.98-1.39,3.11.26,1.46,1.06,3.03,1.9,4.27-1.26,1.77-2.38,3.64-3.41,5.59.06-1.46.03-2.96.01-4.32-.02-1.38.04-3.31-1.14-4.26-1.38-1.11-2.72,1.9-2.81,2.75-.35,3.24.99,6.09,2.44,8.88-.21.47-.43.94-.63,1.41-.39.89-.83,1.85-1.29,2.86-.11-.56-.24-1.11-.26-1.67-.04-1.17-.14-2.32-.38-3.47-.32-1.56-1.36-3.36-3.14-2.4-1.64.88-.44,3.78.04,4.96.58,1.42,1.51,3.54,2.92,4.44-1.18,2.79-2.23,5.81-2.18,8.63-2.44-6.53-5.02-12.98-6.61-19.84-.49-2.14-.89-4.28-1.19-6.44.08,0,.15-.06.17-.16.75-3.53,1.88-6.85,3.27-10.02.43-.34.96-.55,1.48-.63,1.55-.24,10.17,1.42,9.51-1.79-.53-2.54-6.28-1.18-7.63-.61-1.01.44-2.03,1.08-2.86,1.89.96-2.05,2.02-4.04,3.18-5.99.57-.33,1.2-.57,1.82-.71,1.3-.28,9.96-1.15,8.31-3.66-1.2-1.87-6.32,1.04-7.44,1.73-.54.35-1.23.79-1.88,1.31,1.25-2,2.59-3.96,3.99-5.88.3-.08.61-.16.89-.25,1.72-.62,7.28-.98,7.9-2.69.69-1.91-3.52-.78-4.28-.51-1.15.4-2.24.98-3.23,1.72.67-.88,1.34-1.76,2.03-2.64.53-.34,1.16-.57,1.68-.87,1.56-.94,9.34-8.44,4.57-8.04-4.12.33-5.23,4.98-6.57,8.2-.58.63-1.16,1.28-1.74,1.94.6-1.67,2.09-6.85-.65-5.01-1.73,1.15-1.52,5.06-1.33,7.34-1.4,1.7-2.76,3.46-4.03,5.3,0-.12.02-.23.02-.35.12-1.43,2.53-8.72,0-8.73-2.23,0-2,4.63-1.86,5.92.14,1.47.5,2.95,1.05,4.33-1.22,1.86-2.34,3.77-3.29,5.74.31-1.99,1.31-3.75,1.14-5.85-.1-1.28-1.03-4.62-2.61-2.7-1.63,1.94-.99,6.39-.49,8.61.21.87.51,1.67.84,2.45-1.17,2.89-1.96,5.87-2.2,8.91-.74-6.39-.62-12.85.37-19.26,1.26-8.12,3.91-16.78,8.02-24.59,1.27-1.01,2.6-1.87,3.98-2.63.45.25.95.46,1.41.68,1.39.64,7.85,3.67,8.87,1.69.78-1.57-5.39-3.33-8.8-3.14,2.04-1,4.16-1.82,6.28-2.63.41.27.77.6,1.18.87,1,.6,5.81,2.71,6.53,1.13.85-2.08-4.2-2.68-6.5-2.45,1.46-.55,2.91-1.12,4.35-1.74.81-.05,1.62-.15,2.43-.08,1.68.16,3.03.4,4.61-.59,2.18-1.45,1.25-3.05-1.15-3.06-1.92.02-3.31.85-4.6,2.15-.28.27-.54.56-.82.81-1.52.54-3.05,1.03-4.59,1.52.38-.26.75-.52,1.11-.8.7-.48,2.22-1.44,2.32-2.38.07-1.13-.92-1.11-1.81-.83-2.08.69-2.59,2.83-3.44,4.61-.95.32-1.9.64-2.84.99-.53.2-1.09.41-1.68.64.25-.23.5-.45.79-.68.84-.65,4.94-5.15,1.53-4.7-2.44.27-4.36,4.05-4.88,6.49-1.07.53-2.11,1.14-3.01,1.85,2.93-5.07,6.51-9.7,10.76-13.48.05.04.11.06.18.06,1.64-.01,9.21,2.53,9.36-.32.13-2.52-5.09-1.87-7.98-1.07,1.08-.87,2.19-1.69,3.35-2.45,1.8.24,3.78.76,5.59.64.91-.06,2.19-.79,1.49-1.86-.48-.74-1.68-.69-2.66-.54-.36.03-.73.1-1.09.2-.37.07-.75.15-1.14.25.66-.37,1.33-.73,2.01-1.06.36-.06.72-.17,1.09-.23.49-.08,1-.08,1.49-.13.55-.05,1.11-.18,1.65-.32.77-.19,2.42-.54,2.54-1.53.13-1.14-2.25-1.23-2.9-1.13-1.51.23-2.69,1.5-3.7,2.61-.14.07-.27.15-.38.26-.71.33-1.4.67-2.08,1.04,1.24-1.45,2.73-3.67,1.55-4.42-1.02-.65-2.39.23-2.97,1.08-.83,1.22-.71,2.99-.46,4.41-.89.55-1.76,1.13-2.61,1.74,1.02-2.1,1.87-5.08.06-5.7-3.19-1.1-3.05,5.54-2.34,7.46-2.19,1.82-4.19,3.85-6.02,6.05.27-.89.46-1.81.55-2.75,0,0,.01,0,.02-.01,1-1.63,3.16-1.73,4.25-3.24.64-.88.79-2.23-.49-2.53-1.69-.4-3.01,1.49-3.68,3.32-.03-.98-.12-1.96-.26-2.94.88-.93,1.95-1.63,2.81-2.6.69-.78.98-1.87-.08-2.45-1.74-.96-2.84.44-3.33,2.07-.13-.53-.28-1.04-.44-1.55,0-.04.01-.09,0-.13-.11-.84.31-1.61.27-2.44-.02-.51-.21-1.01-.42-1.47-.33-.73-.97-1.68-1.89-1.59-1.07.11-1.09,1.85-.92,2.57.31,1.33,1.18,2.36,2.13,3.28.12.62.25,1.23.39,1.85-.22-.3-.43-.59-.61-.84-.59-.84-1.85-1.94-2.83-.93-.83.86.19,2.21.83,2.8.86.8,2.1,1.71,3.27,2.06.01.06.02.13.03.19.11.64.17,1.28.21,1.91-.37-.58-.85-1.1-1.39-1.51-.68-.53-1.8-1.26-2.68-.81-.98.5-.45,2.12.02,2.76.88,1.22,2.67,1.69,4.04,2.11-.09,1.28-.29,2.55-.62,3.84,0,.01,0,.02,0,.03-4.85,6.13-8.43,13.44-10.93,20.95.02-2.19-.21-4.48-.51-6.7.31-.6.65-1.19,1.08-1.73,1-1.27,6.29-5.19,3.45-6.95-3.09-1.91-4.36,3.59-4.73,7.25-.21-1.41-.44-2.78-.63-4.06-.16-1.06-.29-2.12-.4-3.18.27-.41.64-.78,1-1.08.98-.92,2.18-1.45,2.96-2.57.67-.93,2.04-3.68.59-4.52-1.57-.89-3.48,1.59-3.99,2.71-.38.84-.66,1.78-.83,2.74-.23-2.34-.46-4.66-.91-6.95.14-.44.29-.88.4-1.32.51-1.92.51-11.05-3.13-7.64-2.9,2.74.2,5.99,1.84,8.65.22,1.46.38,2.93.52,4.4-.17-.24-.34-.49-.48-.74-.52-.98-3.75-6.07-5.14-3.78-1.17,1.85,4.1,5.18,5.77,6.12.18,2.08.35,4.17.62,6.26.08.57.16,1.13.24,1.69-.22-.32-.45-.63-.66-.96-1.25-1.85-3.53-7.91-6.55-7.01-3.79,1.12,6.11,8.26,7.38,9.11.35,2.29.7,4.57.83,6.93-.25-.35-.51-.69-.79-1.03-.78-.98-1.26-1.94-1.94-2.97-.81-1.3-3.73-4.42-5.56-3.74-3.42,1.28,6.35,7.45,8.33,8.51.08,1.94.12,3.87.25,5.8-.78,2.66-1.43,5.32-1.95,7.96-1.41,7.03-1.57,14.18-.78,21.26-.8-1.34-1.64-2.66-2.53-3.95-.14-1.31-.29-2.25.05-3.56.29-1.11.61-2.21.84-3.34.24-1.19.53-3.31-.84-3.97-1.73-.84-2.44,1.53-2.7,2.76-.38,1.78-.25,3.5.44,5.07-.83-1.08-1.68-2.14-2.56-3.17.12-2.8,3.66-8.5-.7-8.89-3.12-.28-2.92,3.11-2.07,5.78-.92-.98-1.85-1.94-2.8-2.88-.55-1.39-1.33-2.75-1.94-4.1-.56-1.24-1.26-2.53-2.32-3.43-1.25-1.06-3.34-2.22-4.51-.46-1.17,1.75.05,3.87,1.42,5.01,1.92,1.61,4.49,2.38,6.7,3.52,1.03,1.16,2.04,2.35,3.02,3.54-.95-.48-2.01-.82-2.91-1.06-1.25-.34-3.92-.91-4.63.68-.76,1.72.77,2.62,2.25,2.79,1.16.14,2.38-.04,3.53-.2,1.28-.17,2.28-.24,3.48-.09,1.17,1.48,2.33,2.98,3.47,4.49-2.44-1.23-6.2-1.9-7.8-.05-1.3,1.51.46,2.88,1.8,3.25,1,.28,1.99.24,2.97-.08.63-.2,1.2-.58,1.76-.91.79-.45,1.59-.61,2.44-.66,1.46,1.94,2.91,3.89,4.38,5.85.21,1.57.47,3.14.78,4.7.9,4.63,2.15,9.37,3.72,14.02-.99-1.15-2.15-2.21-3.41-3.2-.02-.04-.03-.07-.05-.1-1.73-2.45-1.75-5.04-2.42-7.87-.46-1.93-1.36-3.77-3.52-3.99-2.14-.22-1.93,2.57-1.58,3.86.47,1.7,1.46,3.26,2.62,4.68-.77-.49-1.53-.96-2.23-1.4-.62-.39-1.24-.77-1.86-1.15-.02-.02-.05-.03-.07-.04-.15-.09-.3-.18-.45-.27-.12-.66-.37-1.29-.47-1.96-.14-1-.25-2.01-.44-3.01-.27-1.46-.74-3.6-2.34-4.14s-2.52,1.3-2.34,2.62c.22,1.62,1.02,2.89,2.03,4.03.25.36.52.67.82.87-1.68-.94-3.39-1.86-5.09-2.76,0,0,0,0,0,0-.38-.82-.06-1.74-.35-2.6-.21-.64-.53-1.23-.87-1.81-.49-.83-1.33-2.25-2.47-2.11-1.38.16-.95,2.5-.6,3.26.26.56.63,1.09,1.06,1.57-.44-.23-.89-.46-1.33-.7-1.49-1.76-6.49-8.2-7.93-4.23-1.27,3.48,4.9,4.34,7.24,4.54.19.12.38.23.56.34.01,0,.02.02.03.03.03.02.05.03.08.04.7.43,1.41.85,2.13,1.26-1.1-.04-2.27.32-3.24.72-.91.37-2.69,1.48-2.13,2.73.45,1,2.47.27,3.15.06.66-.2,1.31-.45,1.94-.73.84-.37,1.46-1.07,2.31-1.43.06-.02.1-.06.14-.09,1.61.91,3.23,1.81,4.84,2.73-1.04-.16-2.11-.23-3.15-.25-1.41-.04-4.31-.05-4.88,1.68-.59,1.79,1.05,2.78,2.64,2.62,1.25-.13,2.44-.53,3.62-.95,1.81-.65,3.13-1.01,5.13-.94.09,0,.18-.02.25-.05,1.59.96,3.12,1.97,4.59,3.04-2.54-.24-5.26.72-7.51,1.73-.97.43-3.95,2.66-1.93,3.82,1.72.99,4.4-.13,6.08-.71,2.03-.69,4.27-1.63,6.12-2.75,2.16,1.73,4.2,3.61,6.2,5.62,1.54,4.19,3.34,8.26,5.4,12.04.13.24.57.12.48-.16-.45-1.37-.93-2.72-1.42-4.07.02-.04.03-.09.02-.13-.28-3.35.48-6.51,1.59-9.6.71-.11,1.31-.5,2.03-.68.53-.14,1.04-.13,1.58-.14,1.41-.02,2.82-.02,4.21-.22,1.62-.23,3.86-1.76,2.03-3.42-.94-.86-2.39-.83-3.77-.52-.46.08-.93.22-1.39.39-.48.16-.92.33-1.29.47-.56.22-1.43.62-2.24,1.15.45-1.09.92-2.17,1.37-3.25.24-.58.5-1.16.76-1.74,1.53-.47,2.9-.99,4.55-.95,1.47.03,2.91.06,4.37-.15,1.34-.19,4.47-1.73,3.2-3.65-1.12-1.69-3.8-1.01-5.43-.58-1.53.4-3.69,1.02-5.16,2.16.81-1.56,1.7-3.08,2.67-4.54.96.03,1.87-.52,2.88-.45,1.17.09,2.34.22,3.52.27,1.39.06,4.18.25,4.66-1.53.54-1.99-2.39-2.05-3.56-1.98ZM322.18,117.74s0,.02,0,.02c-.01,0-.03.01-.04.02.02-.01.03-.03.05-.04ZM303.22,114.19s.01.04.02.06c0,.04.01.07.02.11-.02-.06-.03-.11-.04-.17ZM274.76,171.64s-.02-.02-.03-.04c.05,0,.1,0,.15,0-.04,0-.08.02-.12.03ZM278.8,187.07s0-.01,0-.02c.01,0,.02,0,.04,0,0,0-.02,0-.03.01Z"/>
  </g>
  <circle class="cls-3" cx="277.28" cy="283.91" r="243.57"/>
  <circle class="cls-4" cx="277.28" cy="285.45" r="224.17"/>
  <g>
    <path class="cls-1" d="M153.92,390.47c-4.48,0-8.22-.87-11.21-2.6-2.99-1.73-4.76-4.41-5.31-8.02v-.71c-.63.87-1.36,1.89-2.18,3.07-.83,1.18-1.69,2.18-2.6,3.01-.91.83-1.83,1.24-2.77,1.24-.16,0-.61-.08-1.36-.24-.75-.16-1.46-.35-2.12-.59-.67-.24-1.04-.51-1.12-.83-.24-1.5.14-3.64,1.12-6.43.98-2.79,2.28-5.88,3.89-9.26,1.61-3.38,3.3-6.76,5.07-10.15,1.77-3.38,3.4-6.43,4.9-9.15,1.49-2.71,2.55-4.78,3.19-6.2.47-.86.79-1.59.94-2.18.16-.59.24-1.04.24-1.36,0-.47-.08-.86-.24-1.18.16-.94.73-2.2,1.71-3.78.98-1.57,2.22-3.15,3.72-4.72,1.49-1.57,3.11-2.89,4.84-3.95,1.73-1.06,3.34-1.59,4.84-1.59.47,0,1.2.14,2.18.41.98.28,1.93.69,2.83,1.24.9.55,1.47,1.34,1.71,2.36.08.24.12.47.12.71s-.08.35-.24.35-.37-.06-.65-.18c-.28-.12-.49-.18-.65-.18-1.81,0-3.78.87-5.9,2.6-2.12,1.73-4.31,4.05-6.55,6.96-2.24,2.91-4.42,6.1-6.55,9.56-2.12,3.46-4.15,6.94-6.08,10.44-1.93,3.5-3.6,6.73-5.02,9.68s-2.52,5.33-3.3,7.14c-.63,1.73-.94,2.95-.94,3.66,0,1.1.43,1.65,1.3,1.65,1.1,0,2.28-.75,3.54-2.24.86-1.02,1.67-1.99,2.42-2.89.75-.9,1.4-1.28,1.95-1.12,1.1,0,1.85.29,2.24.88.39.59.63,1.28.71,2.07.08.79.16,1.5.24,2.12.55,2.44,1.83,4.46,3.83,6.08,2.01,1.61,4.82,2.42,8.44,2.42,3.85,0,7.32-.63,10.38-1.89,3.07-1.26,5.51-3.01,7.32-5.25,1.81-2.24,2.71-4.78,2.71-7.61,0-1.96-.47-4.03-1.42-6.19-.94-2.16-2.44-4.35-4.48-6.55-1.73-2.04-3.66-3.97-5.78-5.78-2.12-1.81-3.95-3.48-5.49-5.02-1.54-1.53-2.3-2.85-2.3-3.95,0-.94.63-1.79,1.89-2.54,1.26-.75,2.28-1.12,3.07-1.12,1.81,0,4.11-.35,6.9-1.06,2.79-.71,5.68-1.67,8.67-2.89,2.99-1.22,5.72-2.58,8.2-4.07,2.48-1.49,4.31-2.99,5.49-4.48.71-.87,1.28-1.79,1.71-2.77.43-.98.65-1.95.65-2.89,0-1.49-.65-2.85-1.95-4.07-1.3-1.22-3.48-2.1-6.55-2.66-.87-.24-1.89-.39-3.07-.47-1.18-.08-2.44-.12-3.78-.12-4.01,0-8.65.37-13.92,1.12-5.27.75-10.62,1.83-16.05,3.25s-10.5,3.19-15.22,5.31c-4.72,2.12-8.6,4.58-11.62,7.38-3.03,2.79-4.74,5.88-5.13,9.26-.16,1.97.31,3.46,1.42,4.48,1.1,1.02,2.4,1.79,3.89,2.3,1.49.51,2.67,1,3.54,1.48.71.32,1.06.63,1.06.94,0,.39-.43.59-1.3.59-.94,0-2.12-.24-3.54-.71-1.42-.47-2.81-1.2-4.19-2.18-1.38-.98-2.5-2.18-3.36-3.6-.87-1.42-1.18-3.07-.94-4.96,0-.16-.04-.45-.12-.88-.08-.43-.12-.77-.12-1,.24-2.52,1.32-4.92,3.25-7.2,1.93-2.28,4.21-4.37,6.84-6.25,2.63-1.89,5.09-3.46,7.38-4.72,2.52-1.34,5.54-2.58,9.09-3.72,3.54-1.14,7.33-2.14,11.39-3.01,4.05-.86,8.16-1.55,12.33-2.06,4.17-.51,8.06-.77,11.68-.77,3.85,0,7.24.32,10.15.94,3.93.87,6.96,2.4,9.09,4.6,2.12,2.2,3.19,4.64,3.19,7.32-.08,2.91-.96,5.45-2.66,7.61-1.69,2.17-3.88,3.99-6.55,5.49-2.67,1.5-5.57,2.73-8.67,3.72-3.11.99-6.16,1.71-9.15,2.18-2.99.47-5.59.75-7.79.83,3.3,1.97,6.59,4.15,9.85,6.55,3.26,2.4,5.98,5.01,8.14,7.85,2.16,2.83,3.25,5.94,3.25,9.32,0,1.89-.41,3.83-1.24,5.84s-2.14,4.15-3.95,6.43c-2.36,2.91-5.65,5.23-9.85,6.96-4.21,1.73-8.71,2.6-13.51,2.6Z"/>
    <path class="cls-1" d="M199.23,384.45c-3.3,0-5.61-.83-6.9-2.48-1.3-1.65-1.95-3.7-1.95-6.14,0-2.28.53-5.15,1.59-8.61,1.06-3.46,2.46-7.2,4.19-11.21s3.6-8,5.61-11.98c2.01-3.97,4.01-7.63,6.02-10.97,2.01-3.34,3.76-6.04,5.25-8.08,1.49-1.97,3.11-3.93,4.84-5.9,1.73-1.96,3.66-3.62,5.78-4.96,2.12-1.34,4.52-2.01,7.2-2.01,1.81,0,3.36.49,4.66,1.48,1.3.98,1.95,2.46,1.95,4.42,0,.79-.14,1.69-.41,2.71-.28,1.02-.73,2.08-1.36,3.19-4.8,8.34-10.52,16.05-17.17,23.13-6.65,7.08-13.67,13.65-21.06,19.71-.32,1.18-.61,2.24-.88,3.19-.28.94-.49,1.69-.65,2.24-.08.39-.12.81-.12,1.24v1.24c0,1.89.31,3.54.94,4.96.63,1.42,1.69,2.12,3.19,2.12,1.42,0,3.17-.69,5.25-2.06,2.08-1.38,4.19-3.07,6.31-5.07,2.12-2.01,4.05-3.95,5.78-5.84,1.73-1.89,2.95-3.34,3.66-4.37.24-.24.47-.35.71-.35.31,0,.57.16.77.47.2.32.18.71-.06,1.18-.79,1.34-2.05,2.99-3.78,4.96-1.73,1.97-3.66,3.95-5.78,5.96-2.12,2.01-4.17,3.76-6.14,5.25-2.44,1.73-4.92,2.6-7.43,2.6ZM199.11,362.03c2.99-2.04,6.1-4.7,9.32-7.96,3.22-3.26,6.39-6.82,9.5-10.68,3.11-3.85,5.94-7.67,8.5-11.45,2.55-3.78,4.62-7.2,6.2-10.27.47-.87.8-1.63,1-2.3.2-.67.29-1.28.29-1.83,0-1.49-.63-2.24-1.89-2.24-1.1,0-2.48.59-4.13,1.77-4.25,3.3-8.18,7.53-11.8,12.69-3.62,5.15-6.84,10.56-9.68,16.22-2.83,5.66-5.27,11.01-7.32,16.05Z"/>
    <path class="cls-1" d="M228.49,384.57c-2.2,0-4.13-.51-5.78-1.53-2.75-1.65-4.13-4.64-4.13-8.97,0-1.81.31-3.89.94-6.25.55-1.97,1.54-4.11,2.95-6.43,1.42-2.32,3.09-4.54,5.01-6.67s4.03-3.85,6.31-5.19c2.28-1.34,4.56-2.01,6.84-2.01.94,0,1.77.12,2.48.35.94.32,1.75.89,2.42,1.71.67.83,1,1.87,1,3.13,0,1.34-.33,2.08-1,2.24-.67.16-1,0-1-.47,0-.16.02-.31.06-.47.04-.16.06-.28.06-.35,0-.63-.18-1.2-.53-1.71-.35-.51-1-.77-1.95-.77-1.26,0-2.81.67-4.66,2.01-1.85,1.34-3.74,3.13-5.66,5.37-1.93,2.24-3.62,4.7-5.07,7.38-1.46,2.67-2.42,5.35-2.89,8.02-.08.39-.14.77-.18,1.12-.04.35-.06.73-.06,1.12,0,1.81.41,3.32,1.24,4.54.83,1.22,2.14,1.83,3.95,1.83,2.2,0,4.33-.84,6.37-2.54,2.04-1.69,3.87-3.72,5.49-6.08,1.61-2.36,2.81-4.44,3.6-6.25.63-1.42,1.06-2.63,1.3-3.66.24-1.02.35-1.89.35-2.6,0-.63-.06-1.18-.18-1.65-.12-.47-.26-.86-.41-1.18-.16-.47-.24-.83-.24-1.06,0-.63.25-1.14.77-1.53.51-.39,1.04-.59,1.59-.59.47,0,.98.16,1.53.47.63.16,1.49.28,2.6.35,1.1.08,2.28.12,3.54.12,1.34,0,2.69-.04,4.07-.12,1.38-.08,2.58-.24,3.6-.47.16-.08.39-.12.71-.12.55,0,.83.16.83.47s-.28.59-.83.83c-2.75,1.26-5.21,1.93-7.38,2.01-2.17.08-4.03.12-5.6.12.16,1.97-.28,4.07-1.3,6.31-1.02,2.24-2.08,4.23-3.19,5.96-1.34,1.97-2.87,3.97-4.6,6.02-1.73,2.05-3.66,3.76-5.78,5.13-2.12,1.38-4.52,2.06-7.2,2.06Z"/>
    <path class="cls-1" d="M261.53,389.17c-3.15,0-4.72-.87-4.72-2.6,0-1.26.67-2.56,2.01-3.89,1.02-1.02,2.16-1.85,3.42-2.48,1.26-.63,2.04-.94,2.36-.94.39,0,.61.16.65.47.04.32-.14.55-.53.71-.79.47-1.67,1.12-2.66,1.95-.98.83-1.47,1.71-1.47,2.65,0,1.26.75,1.89,2.24,1.89,1.81,0,3.7-.53,5.66-1.59,1.96-1.06,3.79-2.42,5.49-4.07s3.07-3.32,4.13-5.02c1.06-1.69,1.59-3.17,1.59-4.42,0-1.02-.35-1.96-1.06-2.83-.71-.86-2.17-1.89-4.37-3.07-1.5-.87-2.93-1.77-4.31-2.71-1.38-.94-2.42-2.08-3.13-3.42-.63,1.1-1.44,2.42-2.42,3.95-.99,1.53-2.14,3.13-3.48,4.78-.47.47-.94.71-1.42.71s-.71-.2-.71-.59c0-.24.2-.63.59-1.18,2.12-2.52,3.7-4.84,4.72-6.96,1.02-2.12,1.73-3.74,2.12-4.84.31-2.28,1.38-4.44,3.19-6.49,1.81-2.04,4.01-3.83,6.61-5.37,2.6-1.53,5.25-2.73,7.96-3.6,2.71-.86,5.13-1.3,7.26-1.3s4.01.39,5.66,1.18c1.65.79,2.48,2.05,2.48,3.78,0,.94-.28,1.97-.83,3.07-.71,1.5-1.89,2.83-3.54,4.01-.08.08-.2.12-.35.12-.63,0-.94-.27-.94-.83,0-.39.2-.79.59-1.18.63-.55,1.14-1.22,1.53-2.01.39-.79.59-1.53.59-2.24,0-1.42-.83-2.12-2.48-2.12s-3.99.47-6.79,1.42c-2.79.94-5.37,2.16-7.73,3.66-2.68,1.73-4.92,3.62-6.73,5.66-1.81,2.05-2.71,3.85-2.71,5.43,0,.79.25,1.52.77,2.18.51.67,1.51,1.44,3.01,2.3.79.47,1.89,1.08,3.3,1.83,1.42.75,2.63,1.44,3.66,2.07,3.22,1.97,4.84,4.05,4.84,6.25,0,1.81-.79,3.64-2.36,5.49-1.57,1.85-3.6,3.54-6.08,5.07-2.48,1.53-5.09,2.77-7.85,3.72-2.75.94-5.35,1.42-7.79,1.42Z"/>
    <path class="cls-1" d="M296.46,389.17c-3.15,0-4.72-.87-4.72-2.6,0-1.26.67-2.56,2.01-3.89,1.02-1.02,2.16-1.85,3.42-2.48,1.26-.63,2.04-.94,2.36-.94.39,0,.61.16.65.47.04.32-.14.55-.53.71-.79.47-1.67,1.12-2.66,1.95-.98.83-1.47,1.71-1.47,2.65,0,1.26.75,1.89,2.24,1.89,1.81,0,3.7-.53,5.66-1.59,1.96-1.06,3.79-2.42,5.49-4.07,1.69-1.65,3.07-3.32,4.13-5.02,1.06-1.69,1.59-3.17,1.59-4.42,0-1.02-.35-1.96-1.06-2.83-.71-.86-2.16-1.89-4.37-3.07-1.5-.87-2.93-1.77-4.31-2.71-1.38-.94-2.42-2.08-3.13-3.42-.63,1.1-1.44,2.42-2.42,3.95-.98,1.53-2.14,3.13-3.48,4.78-.47.47-.94.71-1.42.71s-.71-.2-.71-.59c0-.24.2-.63.59-1.18,2.12-2.52,3.7-4.84,4.72-6.96,1.02-2.12,1.73-3.74,2.12-4.84.31-2.28,1.38-4.44,3.19-6.49,1.81-2.04,4.01-3.83,6.61-5.37,2.6-1.53,5.25-2.73,7.96-3.6,2.71-.86,5.13-1.3,7.26-1.3s4.01.39,5.66,1.18c1.65.79,2.48,2.05,2.48,3.78,0,.94-.28,1.97-.83,3.07-.71,1.5-1.89,2.83-3.54,4.01-.08.08-.2.12-.35.12-.63,0-.94-.27-.94-.83,0-.39.2-.79.59-1.18.63-.55,1.14-1.22,1.53-2.01.39-.79.59-1.53.59-2.24,0-1.42-.83-2.12-2.48-2.12s-3.99.47-6.79,1.42c-2.79.94-5.37,2.16-7.73,3.66-2.68,1.73-4.92,3.62-6.73,5.66-1.81,2.05-2.71,3.85-2.71,5.43,0,.79.25,1.52.77,2.18.51.67,1.51,1.44,3.01,2.3.79.47,1.89,1.08,3.3,1.83,1.42.75,2.63,1.44,3.66,2.07,3.22,1.97,4.84,4.05,4.84,6.25,0,1.81-.79,3.64-2.36,5.49-1.58,1.85-3.6,3.54-6.08,5.07-2.48,1.53-5.09,2.77-7.85,3.72-2.75.94-5.35,1.42-7.79,1.42Z"/>
    <path class="cls-1" d="M339.29,384.57c-2.2,0-4.13-.51-5.78-1.53-2.75-1.65-4.13-4.64-4.13-8.97,0-1.81.31-3.89.94-6.25.55-1.97,1.53-4.11,2.95-6.43,1.42-2.32,3.09-4.54,5.01-6.67,1.93-2.12,4.03-3.85,6.31-5.19,2.28-1.34,4.56-2.01,6.84-2.01.94,0,1.77.12,2.48.35.94.32,1.75.89,2.42,1.71.67.83,1,1.87,1,3.13,0,1.34-.33,2.08-1,2.24-.67.16-1,0-1-.47,0-.16.02-.31.06-.47.04-.16.06-.28.06-.35,0-.63-.18-1.2-.53-1.71-.35-.51-1-.77-1.95-.77-1.26,0-2.81.67-4.66,2.01-1.85,1.34-3.74,3.13-5.66,5.37-1.93,2.24-3.62,4.7-5.07,7.38-1.46,2.67-2.42,5.35-2.89,8.02-.08.39-.14.77-.18,1.12-.04.35-.06.73-.06,1.12,0,1.81.41,3.32,1.24,4.54.83,1.22,2.14,1.83,3.95,1.83,2.2,0,4.33-.84,6.37-2.54,2.04-1.69,3.87-3.72,5.49-6.08,1.61-2.36,2.81-4.44,3.6-6.25.63-1.42,1.06-2.63,1.3-3.66.24-1.02.35-1.89.35-2.6,0-.63-.06-1.18-.18-1.65-.12-.47-.26-.86-.41-1.18-.16-.47-.24-.83-.24-1.06,0-.63.25-1.14.77-1.53.51-.39,1.04-.59,1.59-.59.47,0,.98.16,1.53.47.63.16,1.49.28,2.6.35,1.1.08,2.28.12,3.54.12,1.34,0,2.69-.04,4.07-.12,1.38-.08,2.58-.24,3.6-.47.16-.08.39-.12.71-.12.55,0,.83.16.83.47s-.28.59-.83.83c-2.75,1.26-5.21,1.93-7.38,2.01-2.16.08-4.03.12-5.6.12.16,1.97-.28,4.07-1.3,6.31-1.02,2.24-2.09,4.23-3.19,5.96-1.34,1.97-2.87,3.97-4.6,6.02-1.73,2.05-3.66,3.76-5.78,5.13-2.12,1.38-4.52,2.06-7.2,2.06Z"/>
    <path class="cls-1" d="M369.03,384.8c-.63,0-.83-.28-.59-.83.31-.55.88-1.95,1.71-4.19.83-2.24,1.77-4.9,2.83-7.96,1.06-3.07,2.1-6.02,3.13-8.85-.79,1.18-1.63,2.32-2.54,3.42-.91,1.1-1.67,2.01-2.3,2.71-.24.24-.39.35-.47.35-.24,0-.35-.24-.35-.71,0-.94.24-1.81.71-2.6,1.65-2.12,2.91-3.79,3.78-5.01.86-1.22,1.59-2.32,2.18-3.3.59-.98,1.2-2.1,1.83-3.36.16-.86.45-1.93.88-3.19.43-1.26,1.48-1.89,3.13-1.89,2.44,0,3.66.51,3.66,1.53,0,.32-.08.65-.24,1-.16.35-.31.73-.47,1.12-.94,2.12-1.97,4.56-3.07,7.32-1.1,2.75-2.11,5.35-3.01,7.79-.91,2.44-1.59,4.33-2.06,5.66.86-1.1,2.16-2.65,3.89-4.66,1.73-2.01,3.72-4.21,5.96-6.61,2.24-2.4,4.56-4.68,6.96-6.84,2.4-2.16,4.66-3.95,6.79-5.37s3.93-2.12,5.43-2.12c1.81,0,2.71,1.02,2.71,3.07,0,1.57-.63,3.62-1.89,6.14-.55,1.18-1.3,2.77-2.24,4.78-.94,2.01-1.69,3.52-2.24,4.54,1.42-1.26,3.03-2.66,4.84-4.19,1.81-1.53,3.72-2.97,5.72-4.31,2.01-1.34,3.87-2.32,5.61-2.95.39-.16,1.18-.41,2.36-.77,1.18-.35,2.2-.53,3.07-.53,1.18,0,1.77.39,1.77,1.18,0,.55-.28,1.14-.83,1.77-1.34,2.05-2.54,4.23-3.6,6.55-1.06,2.32-1.91,4.5-2.54,6.55-.63,2.05-1.02,3.7-1.18,4.96-.08.32-.12.61-.12.88v.88c0,3.15,1.02,4.72,3.07,4.72,1.26,0,2.87-.69,4.84-2.07,1.96-1.38,3.97-3.07,6.02-5.07,2.04-2.01,3.91-3.93,5.61-5.78,1.69-1.85,2.85-3.24,3.48-4.19.24-.24.47-.35.71-.35.31,0,.57.12.77.35.2.24.22.55.06.94-.71,1.34-1.91,3.01-3.6,5.01-1.69,2.01-3.58,4.01-5.66,6.02-2.09,2.01-4.11,3.72-6.08,5.13-1.02.79-2.3,1.47-3.83,2.06s-3.09.88-4.66.88c-1.42,0-2.7-.32-3.83-.94-1.14-.63-1.99-1.81-2.54-3.54-.24-.71-.35-1.61-.35-2.71,0-1.73.24-3.7.71-5.9.47-2.2.98-4.05,1.53-5.55.39-1.1.92-2.34,1.59-3.72.67-1.38,1.28-2.54,1.83-3.48-2.44.94-4.8,2.36-7.08,4.25-2.28,1.89-4.35,3.8-6.2,5.72-1.85,1.93-3.4,3.52-4.66,4.78-.32.87-.93,1.57-1.83,2.12-.91.55-1.75.83-2.54.83-1.18,0-1.77-.51-1.77-1.53,0-.39.12-.86.35-1.42.79-1.89,1.67-3.83,2.66-5.84.98-2.01,1.89-3.83,2.71-5.49.83-1.65,1.4-2.79,1.71-3.42.63-1.1.94-1.96.94-2.6s-.28-.94-.83-.94-1.46.35-2.71,1.06c-1.26.71-2.91,1.97-4.96,3.78-1.65,1.5-3.46,3.44-5.43,5.84-1.97,2.4-3.86,4.86-5.66,7.38-1.81,2.52-3.4,4.68-4.78,6.49-1.38,1.81-2.34,2.87-2.89,3.19-.47.24-1.4.63-2.77,1.18-1.38.55-2.42.83-3.13.83Z"/>
  </g>
  <g>
    <path class="cls-2" d="M139.18,409.35h16.73v2.81h-13.7v6.97h12.67v2.66h-12.67v7.78h13.94v2.73h-16.97v-22.95Z"/>
    <path class="cls-2" d="M159.85,415.57h2.78v2.38c.67-.82,1.27-1.42,1.81-1.8.93-.64,1.98-.95,3.16-.95,1.33,0,2.41.33,3.22.98.46.38.88.93,1.25,1.66.62-.9,1.36-1.56,2.2-1.99s1.79-.65,2.84-.65c2.25,0,3.78.81,4.59,2.44.44.88.66,2.05.66,3.53v11.14h-2.92v-11.62c0-1.11-.28-1.88-.84-2.3-.56-.42-1.24-.62-2.04-.62-1.1,0-2.05.37-2.85,1.11s-1.2,1.97-1.2,3.7v9.73h-2.86v-10.92c0-1.14-.14-1.96-.41-2.48-.43-.78-1.22-1.17-2.39-1.17-1.06,0-2.03.41-2.9,1.23-.87.82-1.3,2.31-1.3,4.47v8.88h-2.81v-16.73Z"/>
    <path class="cls-2" d="M186.28,409.28h2.73v8.33c.61-.8,1.35-1.41,2.2-1.84.85-.42,1.78-.63,2.78-.63,2.08,0,3.77.72,5.07,2.15s1.95,3.54,1.95,6.34c0,2.65-.64,4.84-1.92,6.59s-3.06,2.62-5.33,2.62c-1.27,0-2.34-.31-3.22-.92-.52-.36-1.08-.95-1.67-1.75v2.14h-2.59v-23.03ZM197.01,428.54c.75-1.21,1.13-2.8,1.13-4.78,0-1.76-.38-3.22-1.13-4.38-.76-1.16-1.87-1.73-3.34-1.73-1.28,0-2.4.47-3.37,1.42-.96.95-1.45,2.51-1.45,4.69,0,1.57.2,2.85.59,3.83.74,1.84,2.12,2.77,4.14,2.77,1.52,0,2.66-.6,3.41-1.81Z"/>
    <path class="cls-2" d="M204.38,415.57h2.67v2.89c.22-.56.75-1.25,1.61-2.05.85-.81,1.84-1.21,2.95-1.21.05,0,.14,0,.27.02s.34.03.64.06v2.97c-.17-.03-.32-.05-.46-.06s-.29-.02-.46-.02c-1.42,0-2.51.46-3.27,1.37-.76.91-1.14,1.96-1.14,3.15v9.62h-2.81v-16.73Z"/>
    <path class="cls-2" d="M227.18,417.24c1.49,1.44,2.23,3.55,2.23,6.34s-.66,4.93-1.97,6.69-3.35,2.64-6.11,2.64c-2.3,0-4.13-.78-5.48-2.34-1.35-1.56-2.03-3.65-2.03-6.27,0-2.81.71-5.05,2.14-6.72,1.43-1.67,3.34-2.5,5.75-2.5,2.16,0,3.98.72,5.47,2.16ZM225.43,428.38c.69-1.41,1.04-2.98,1.04-4.71,0-1.56-.25-2.83-.75-3.81-.79-1.54-2.16-2.31-4.09-2.31-1.72,0-2.97.66-3.75,1.97s-1.17,2.9-1.17,4.75.39,3.27,1.17,4.45,2.02,1.78,3.72,1.78c1.86,0,3.14-.71,3.84-2.12Z"/>
    <path class="cls-2" d="M232.75,409.35h2.86v3.19h-2.86v-3.19ZM232.75,415.65h2.86v16.66h-2.86v-16.66Z"/>
    <path class="cls-2" d="M249.1,416.09c.5.31,1.07.86,1.7,1.64v-8.45h2.7v23.03h-2.53v-2.33c-.66,1.03-1.43,1.78-2.33,2.23-.9.46-1.92.69-3.08.69-1.87,0-3.48-.78-4.84-2.35-1.37-1.57-2.05-3.65-2.05-6.26,0-2.44.62-4.55,1.87-6.34,1.24-1.79,3.02-2.68,5.34-2.68,1.28,0,2.35.27,3.22.81ZM242.78,428.64c.76,1.21,1.98,1.81,3.66,1.81,1.3,0,2.37-.56,3.21-1.68.84-1.12,1.26-2.73,1.26-4.82s-.43-3.68-1.3-4.7c-.87-1.02-1.93-1.52-3.2-1.52-1.42,0-2.57.54-3.45,1.62-.88,1.08-1.32,2.68-1.32,4.78,0,1.79.38,3.29,1.14,4.5Z"/>
    <path class="cls-2" d="M268.08,416.03c1.11.56,1.96,1.28,2.55,2.16.56.84.94,1.83,1.12,2.95.17.77.25,2,.25,3.69h-12.27c.05,1.7.45,3.06,1.2,4.09s1.91,1.54,3.48,1.54c1.47,0,2.64-.48,3.52-1.45.5-.56.85-1.21,1.06-1.95h2.77c-.07.61-.32,1.3-.73,2.05-.41.75-.87,1.37-1.38,1.85-.85.83-1.91,1.4-3.17,1.69-.68.17-1.44.25-2.3.25-2.08,0-3.85-.76-5.3-2.27-1.45-1.52-2.17-3.64-2.17-6.37s.73-4.87,2.19-6.55c1.46-1.68,3.36-2.52,5.72-2.52,1.19,0,2.34.28,3.45.84ZM269.11,422.6c-.12-1.22-.38-2.19-.8-2.92-.77-1.35-2.06-2.03-3.86-2.03-1.29,0-2.38.47-3.25,1.4s-1.34,2.12-1.39,3.55h9.3Z"/>
    <path class="cls-2" d="M275.53,415.57h2.67v2.89c.22-.56.75-1.25,1.61-2.05.85-.81,1.84-1.21,2.95-1.21.05,0,.14,0,.27.02s.34.03.64.06v2.97c-.17-.03-.32-.05-.46-.06s-.29-.02-.46-.02c-1.42,0-2.51.46-3.27,1.37-.76.91-1.14,1.96-1.14,3.15v9.62h-2.81v-16.73Z"/>
    <path class="cls-2" d="M296.57,415.57h3.11c-.4,1.07-1.28,3.52-2.64,7.34-1.02,2.88-1.88,5.22-2.56,7.03-1.62,4.27-2.77,6.88-3.44,7.81-.67.94-1.81,1.41-3.44,1.41-.4,0-.7-.02-.91-.05-.21-.03-.48-.09-.79-.17v-2.56c.49.13.84.22,1.06.25s.41.05.58.05c.52,0,.9-.09,1.15-.26.24-.17.45-.38.62-.63.05-.08.24-.51.56-1.28.32-.77.56-1.34.7-1.72l-6.19-17.22h3.19l4.48,13.62,4.52-13.62Z"/>
    <path class="cls-2" d="M313.57,416.73c-.33-.76-.49-1.5-.49-2.2,0-1.48.5-2.71,1.5-3.68s2.34-1.46,4.02-1.46,2.84.45,3.73,1.36c.9.91,1.34,1.99,1.34,3.25,0,1.47-.46,2.75-1.39,3.86-.54.65-1.45,1.39-2.72,2.23l4.19,5c.28-.83.48-1.46.59-1.87s.22-.99.34-1.73h2.67c-.18,1.47-.53,2.88-1.06,4.23s-.8,1.89-.8,1.63l4.08,4.95h-3.62l-2.16-2.62c-.85.93-1.64,1.6-2.34,2.03-1.24.75-2.67,1.12-4.28,1.12-2.39,0-4.12-.64-5.2-1.93-1.08-1.29-1.62-2.74-1.62-4.35,0-1.74.53-3.19,1.58-4.36.65-.71,1.85-1.59,3.61-2.66-.97-1.11-1.62-2.05-1.95-2.81ZM320.35,429.57c.83-.53,1.47-1.12,1.92-1.78l-5.19-6.33c-1.47.98-2.43,1.73-2.88,2.25-.69.78-1.03,1.73-1.03,2.86,0,1.22.45,2.16,1.34,2.81s1.84.98,2.85.98c1.16,0,2.15-.27,2.98-.8ZM320.13,416.57c.61-.71.92-1.5.92-2.36,0-.68-.22-1.26-.67-1.75-.45-.49-1.05-.73-1.81-.73-1.16,0-1.96.39-2.41,1.16-.23.4-.34.83-.34,1.3,0,.64.17,1.25.52,1.83.35.58.93,1.34,1.74,2.27.99-.7,1.67-1.27,2.05-1.7Z"/>
    <path class="cls-2" d="M341.61,409.35h3.11v20.22h11.62v2.73h-14.73v-22.95Z"/>
    <path class="cls-2" d="M359.03,409.35h2.86v3.19h-2.86v-3.19ZM359.03,415.65h2.86v16.66h-2.86v-16.66Z"/>
    <path class="cls-2" d="M366.14,415.57h2.67v2.38c.79-.98,1.63-1.68,2.52-2.11.88-.43,1.87-.64,2.95-.64,2.38,0,3.98.83,4.81,2.48.46.91.69,2.2.69,3.89v10.73h-2.86v-10.55c0-1.02-.15-1.84-.45-2.47-.5-1.04-1.41-1.56-2.72-1.56-.67,0-1.21.07-1.64.2-.77.23-1.45.69-2.03,1.38-.47.55-.77,1.12-.91,1.71s-.21,1.43-.21,2.52v8.77h-2.81v-16.73Z"/>
    <path class="cls-2" d="M394.36,416.03c1.11.56,1.96,1.28,2.55,2.16.56.84.94,1.83,1.12,2.95.17.77.25,2,.25,3.69h-12.27c.05,1.7.45,3.06,1.2,4.09s1.91,1.54,3.48,1.54c1.47,0,2.64-.48,3.52-1.45.5-.56.85-1.21,1.06-1.95h2.77c-.07.61-.32,1.3-.73,2.05-.41.75-.87,1.37-1.38,1.85-.85.83-1.91,1.4-3.17,1.69-.68.17-1.44.25-2.3.25-2.08,0-3.85-.76-5.3-2.27-1.45-1.52-2.17-3.64-2.17-6.37s.73-4.87,2.19-6.55c1.46-1.68,3.36-2.52,5.72-2.52,1.19,0,2.34.28,3.45.84ZM395.39,422.6c-.12-1.22-.38-2.19-.8-2.92-.77-1.35-2.06-2.03-3.86-2.03-1.29,0-2.38.47-3.25,1.4s-1.34,2.12-1.39,3.55h9.3Z"/>
    <path class="cls-2" d="M401.74,415.57h2.67v2.38c.79-.98,1.63-1.68,2.52-2.11.88-.43,1.87-.64,2.95-.64,2.38,0,3.98.83,4.81,2.48.46.91.69,2.2.69,3.89v10.73h-2.86v-10.55c0-1.02-.15-1.84-.45-2.47-.5-1.04-1.41-1.56-2.72-1.56-.67,0-1.21.07-1.64.2-.77.23-1.45.69-2.03,1.38-.47.55-.77,1.12-.91,1.71s-.21,1.43-.21,2.52v8.77h-2.81v-16.73Z"/>
  </g>
</svg>